<?xml version="1.0" encoding="UTF-8"?>
<svg width="40px" height="40px" fill="none" viewBox="0 0 40 40" version="1.1" xmlns="http://www.w3.org/2000/svg" xmlns:xlink="http://www.w3.org/1999/xlink">
    <!-- Generator: Sketch 56.3 (81716) - https://sketch.com -->
    <title>icons / search loupe magnifying</title>
    <desc>Created with Sketch.</desc>
    <defs>
        <path d="M39.2881699,35.9662935 L27.8800135,24.5581395 C29.7782272,22.0667341 30.8459724,18.8634985 30.8459724,15.4229862 C30.8459724,6.8810246 23.9649478,-4.14113188e-14 15.4229862,-4.14113188e-14 C6.88102342,-4.14113188e-14 7.22755189e-14,6.8810246 7.22755189e-14,15.4229862 C7.22755189e-14,23.9649478 6.8810246,30.8459724 15.4229862,30.8459724 C18.8634985,30.8459724 21.9480957,29.7782272 24.5581395,27.8800135 L35.9662959,39.2881722 C36.4408493,39.762727 37.0340411,40 37.6272329,40 C38.2204247,40 38.8136164,39.7627233 39.2881699,39.2881722 C40.2372767,38.3390607 40.2372767,36.9154051 39.2881699,35.9662935 Z M15.4229862,26.1004382 C9.49106842,26.1004382 4.74553421,21.3549039 4.74553421,15.4229862 C4.74553421,9.49106842 9.49106842,4.74553421 15.4229862,4.74553421 C21.3549039,4.74553421 26.1004382,9.49106842 26.1004382,15.4229862 C26.1004382,21.3549039 21.3549039,26.1004382 15.4229862,26.1004382 Z" id="path-1"></path>
    </defs>
    <g id="icons-/-search-loupe-magnifying" stroke="none" stroke-width="1" fill="none" fill-rule="evenodd">
        <mask id="mask-2" fill="white">
            <use xlink:href="#path-1"></use>
        </mask>
        <use id="search-loupe-magnifying" fill="#000000" xlink:href="#path-1"></use>
    </g>
</svg>